<svg preserveAspectRatio="none" overflow="visible" style="display: block;" width="32" height="32" viewBox="0 0 32 32" fill="none" xmlns="http://www.w3.org/2000/svg">
<g id="mac-cursor.8929812e.svg">
<path id="Vector" fill-rule="evenodd" clip-rule="evenodd" d="M17.4869 25.9474C18.696 25.9474 19.7474 25.696 20.6389 25.192C21.5326 24.688 22.2229 23.9509 22.7086 22.9771C23.1954 22.0034 23.4389 20.8126 23.4389 19.4011V17.5154C23.4389 16.6389 23.3017 15.9657 23.0274 15.4926C22.7531 15.0206 22.3577 14.784 21.8446 14.784V16.0343C21.8446 16.208 21.7863 16.3474 21.672 16.4514C21.5566 16.5554 21.4274 16.6069 21.2811 16.6069C21.128 16.6069 20.9943 16.5554 20.88 16.4514C20.7646 16.3474 20.7074 16.208 20.7074 16.0343V14.4811C20.7074 14.1691 20.6274 13.9269 20.4686 13.7566C20.3074 13.5863 20.0823 13.5017 19.7897 13.5017C19.5611 13.5017 19.3349 13.5509 19.1131 13.648V15.6286C19.1131 15.8091 19.0549 15.9509 18.9406 16.056C18.8251 16.16 18.696 16.2114 18.5497 16.2114C18.3966 16.2114 18.2629 16.16 18.1486 16.056C18.0331 15.9509 17.976 15.8091 17.976 15.6286V13.3349C17.976 13.0297 17.8949 12.7874 17.7314 12.6103C17.568 12.4331 17.3474 12.344 17.0697 12.344C16.8331 12.344 16.6034 12.3966 16.3817 12.5006V15.232C16.3817 15.392 16.328 15.528 16.2194 15.6389C16.112 15.7497 15.9749 15.8057 15.808 15.8057C15.648 15.8057 15.5143 15.7497 15.4069 15.6389C15.2994 15.528 15.2446 15.392 15.2446 15.232V7.70629C15.2446 7.44914 15.1737 7.24229 15.0309 7.08571C14.8891 6.92914 14.696 6.85143 14.4526 6.85143C14.2091 6.85143 14.0137 6.92914 13.864 7.08571C13.7143 7.24229 13.64 7.44914 13.64 7.70629V18.3074C13.64 18.5303 13.5737 18.712 13.4423 18.8549C13.3097 18.9966 13.1429 19.0674 12.9417 19.0674C12.76 19.0674 12.5989 19.0229 12.4571 18.9326C12.3143 18.8423 12.1943 18.6754 12.0971 18.432L10.7006 15.2423C10.5269 14.8251 10.2651 14.6171 9.91886 14.6171C9.696 14.6171 9.51543 14.688 9.376 14.8309C9.23657 14.9726 9.168 15.1451 9.168 15.3463C9.168 15.5131 9.19886 15.68 9.26171 15.8469L11.128 21.1006C11.7383 22.8034 12.5874 24.0354 13.6709 24.8011C14.7554 25.5657 16.0274 25.9474 17.4869 25.9474ZM17.4457 27.1566C15.6651 27.1566 14.152 26.68 12.9051 25.7291C11.6571 24.7771 10.704 23.3623 10.0434 21.4857L8.17714 16.2217C8.12114 16.056 8.07886 15.8823 8.04686 15.7006C8.016 15.52 8 15.3566 8 15.2114C8 14.6686 8.18057 14.2491 8.54286 13.9497C8.90286 13.6514 9.328 13.5017 9.81371 13.5017C10.1691 13.5017 10.488 13.6046 10.7737 13.8091C11.0583 14.0137 11.2869 14.3223 11.4617 14.7314L12.2846 16.7646C12.3051 16.8126 12.3371 16.8366 12.3783 16.8366C12.4343 16.8366 12.4617 16.8057 12.4617 16.744V7.77829C12.4617 7.14629 12.6491 6.64457 13.0251 6.272C13.4 5.90057 13.8754 5.71429 14.4526 5.71429C15.0229 5.71429 15.4937 5.90057 15.8651 6.272C16.2366 6.64457 16.4229 7.14629 16.4229 7.77829V11.3337C16.6937 11.2571 16.9577 11.2183 17.216 11.2183C17.6606 11.2183 18.0389 11.3349 18.352 11.568C18.664 11.8011 18.8834 12.1189 19.0091 12.5223C19.328 12.4114 19.6411 12.3554 19.9474 12.3554C20.3771 12.3554 20.7406 12.464 21.0354 12.6834C21.3314 12.9017 21.5349 13.1989 21.6457 13.5749C22.5897 13.5817 23.3223 13.9154 23.84 14.5749C24.3577 15.2354 24.6171 16.1634 24.6171 17.3577V19.5371C24.6171 21.1486 24.3143 22.5234 23.7097 23.6594C23.1051 24.7966 22.264 25.6617 21.1874 26.2606C20.1097 26.8583 18.8629 27.1566 17.4457 27.1566Z" fill="black"/>
<path id="Vector_2" fill-rule="evenodd" clip-rule="evenodd" d="M17.4863 25.9475C18.6954 25.9475 19.7469 25.6961 20.6383 25.1921C21.532 24.6881 22.2223 23.951 22.708 22.9773C23.1949 22.0035 23.4383 20.8127 23.4383 19.4013V17.5155C23.4383 16.639 23.3011 15.9658 23.0269 15.4927C22.7526 15.0207 22.3571 14.7841 21.844 14.7841V16.0344C21.844 16.2081 21.7857 16.3475 21.6714 16.4515C21.556 16.5555 21.4269 16.607 21.2806 16.607C21.1274 16.607 20.9937 16.5555 20.8794 16.4515C20.764 16.3475 20.7069 16.2081 20.7069 16.0344V14.4813C20.7069 14.1693 20.6269 13.927 20.468 13.7567C20.3069 13.5864 20.0817 13.5018 19.7891 13.5018C19.5606 13.5018 19.3343 13.551 19.1126 13.6481V15.6287C19.1126 15.8093 19.0543 15.951 18.94 16.0561C18.8246 16.1601 18.6954 16.2115 18.5491 16.2115C18.396 16.2115 18.2623 16.1601 18.148 16.0561C18.0326 15.951 17.9754 15.8093 17.9754 15.6287V13.335C17.9754 13.0298 17.8943 12.7875 17.7309 12.6104C17.5674 12.4333 17.3469 12.3441 17.0691 12.3441C16.8326 12.3441 16.6029 12.3967 16.3811 12.5007V15.2321C16.3811 15.3921 16.3274 15.5281 16.2189 15.639C16.1114 15.7498 15.9743 15.8058 15.8074 15.8058C15.6474 15.8058 15.5137 15.7498 15.4063 15.639C15.2989 15.5281 15.244 15.3921 15.244 15.2321V7.70642C15.244 7.44928 15.1731 7.24242 15.0303 7.08585C14.8886 6.92928 14.6954 6.85157 14.452 6.85157C14.2086 6.85157 14.0131 6.92928 13.8634 7.08585C13.7137 7.24242 13.6394 7.44928 13.6394 7.70642V18.3075C13.6394 18.5304 13.5731 18.7121 13.4417 18.855C13.3091 18.9967 13.1423 19.0675 12.9411 19.0675C12.7594 19.0675 12.5983 19.023 12.4566 18.9327C12.3137 18.8424 12.1937 18.6755 12.0966 18.4321L10.7 15.2424C10.5263 14.8253 10.2645 14.6173 9.91826 14.6173C9.69541 14.6173 9.51483 14.6881 9.37541 14.831C9.23598 14.9727 9.16741 15.1453 9.16741 15.3464C9.16741 15.5133 9.19826 15.6801 9.26112 15.847L11.1274 21.1007C11.7377 22.8035 12.5869 24.0355 13.6703 24.8013C14.7549 25.5658 16.0269 25.9475 17.4863 25.9475Z" fill="white"/>
</g>
</svg>
