<svg preserveAspectRatio="none" overflow="visible" style="display: block;" width="61.621" height="22.0903" viewBox="0 0 61.621 22.0903" fill="none" xmlns="http://www.w3.org/2000/svg">
<path id="Vector" d="M5.74168 22.0903L0 12.1454L3.95431 11.086C4.813 10.8557 5.60334 10.7975 6.32285 10.9105C7.04741 11.0235 7.68511 11.2766 8.23761 11.6705C8.79373 12.0672 9.25661 12.5805 9.59395 13.1745C9.94569 13.7835 10.1119 14.3571 10.0941 14.8969C10.0781 15.4317 9.85795 15.9032 9.43536 16.3123C9.01614 16.7197 8.37678 17.0386 7.51725 17.2688L4.52284 18.0719L3.77634 16.7796L6.61977 16.0179C7.16214 15.8728 7.56195 15.6856 7.8209 15.4553C8.08407 15.2242 8.21821 14.9543 8.22327 14.6464C8.22917 14.3385 8.12457 13.9986 7.90948 13.6257C7.7084 13.268 7.43318 12.9575 7.10225 12.7148C6.77275 12.4781 6.38783 12.3302 5.9846 12.2854C5.55948 12.2272 5.07027 12.2728 4.51862 12.4204L2.41662 12.9838L7.41519 21.6416L5.74168 22.0903ZM8.62731 16.136L13.9582 19.8888L12.0519 20.3999L6.77497 16.6328L8.62731 16.136ZM18.7054 18.7905C17.8856 19.0107 17.0893 19.0427 16.3158 18.8875C15.5409 18.726 14.8115 18.3947 14.18 17.9175C13.5297 17.4266 12.9806 16.794 12.5344 16.0205C12.0932 15.2563 11.863 14.5401 11.8444 13.8721C11.8292 13.204 12.0148 12.6288 12.3994 12.148C12.7891 11.6663 13.3695 11.3221 14.1421 11.1146C14.6264 10.9874 15.1273 10.9345 15.6275 10.9578C16.1642 10.9825 16.693 11.0965 17.1922 11.2951C17.7432 11.5173 18.2507 11.8352 18.6911 12.234C19.166 12.6524 19.5987 13.1998 19.9892 13.8771L20.287 14.3916L13.674 16.163L13.0455 15.0758L18.072 13.7287C17.8604 13.3571 17.572 13.035 17.2259 12.7839C16.8871 12.5354 16.4992 12.362 16.0881 12.2753C15.677 12.1871 15.2507 12.1995 14.8456 12.3116C14.3909 12.433 14.051 12.6397 13.8275 12.9315C13.6065 13.2192 13.496 13.5473 13.4968 13.9176C13.4993 14.2828 13.6081 14.6523 13.8232 15.0243L14.3133 15.8745C14.601 16.373 14.9434 16.7703 15.3407 17.0681C15.7414 17.3642 16.1716 17.5573 16.6321 17.6475C17.0963 17.7333 17.5739 17.7126 18.0289 17.5868C18.336 17.505 18.5932 17.3911 18.8016 17.2452C19.0074 17.0967 19.1567 16.9188 19.2495 16.7104C19.3414 16.5021 19.3693 16.2693 19.3321 16.0095L21.0082 15.8467C21.1187 16.2845 21.1035 16.6978 20.9609 17.0875C20.8209 17.4721 20.5611 17.8129 20.1816 18.1089C19.8037 18.4008 19.3119 18.6286 18.7054 18.7905ZM26.2514 7.9819L27.5411 16.2491L25.8077 16.7138L18.4794 10.0645L20.2178 9.59888L25.639 14.7738L25.725 14.751L24.5129 8.44834L26.2514 7.9819ZM31.7746 15.1145L27.4685 7.65632L29.0881 7.22191L33.3941 14.681L31.7746 15.1145ZM27.622 6.28646C27.3326 6.36111 27.0268 6.34073 26.7499 6.22828C26.453 6.11019 26.2353 5.93218 26.0995 5.696C25.9612 5.45645 25.9426 5.22622 26.0439 5.00438C26.1468 4.77832 26.3391 4.62817 26.6208 4.55225C26.9097 4.47739 27.2151 4.5002 27.4896 4.61717C27.7891 4.73104 28.0084 4.9082 28.1467 5.14776C28.2825 5.38394 28.2994 5.61504 28.1965 5.84026C28.0953 6.0621 27.9038 6.21054 27.622 6.28646ZM38.9401 13.3685C38.1202 13.5886 37.324 13.6207 36.5505 13.4655C35.7756 13.304 35.0462 12.9727 34.4148 12.4955C33.7644 12.0046 33.2153 11.3719 32.7691 10.5984C32.3279 9.83422 32.0977 9.11812 32.0791 8.45091C32.0639 7.78202 32.2495 7.20671 32.635 6.72592C33.0238 6.24428 33.6041 5.90015 34.3768 5.69265C34.8611 5.56542 35.362 5.51254 35.8622 5.53578C36.399 5.56036 36.9279 5.67464 37.4269 5.87398C37.9781 6.09533 38.4857 6.41298 38.9258 6.812C39.4007 7.23037 39.8334 7.77865 40.2248 8.45513L40.5217 8.96966L33.9087 10.7419L33.2802 9.65371L38.3066 8.30666C38.0951 7.93508 37.8067 7.61299 37.4606 7.36194C37.1218 7.1134 36.7339 6.93997 36.3227 6.85329C35.9117 6.76547 35.4855 6.77793 35.0803 6.88958C34.6256 7.01105 34.2866 7.21769 34.063 7.50954C33.8434 7.79083 33.7264 8.13874 33.7315 8.4956C33.7341 8.86168 33.8429 9.2303 34.058 9.60228L34.548 10.4525C34.8365 10.951 35.1781 11.3491 35.5754 11.6461C35.9761 11.943 36.4062 12.1353 36.8668 12.2255C37.331 12.3114 37.8086 12.2906 38.2636 12.1648C38.5707 12.083 38.8279 11.9691 39.0363 11.8232C39.2421 11.6748 39.3914 11.4967 39.4842 11.2884C39.5761 11.0809 39.604 10.8473 39.5669 10.5875L41.2429 10.4247C41.3547 10.8333 41.3385 11.2664 41.1965 11.6655C41.0556 12.0501 40.7958 12.3909 40.4162 12.6869C40.0392 12.9788 39.5466 13.2065 38.9401 13.3685ZM45.7025 11.3829L38.9486 4.58005L40.6221 4.13132L45.4148 9.17209L45.4958 9.15098L43.9691 3.2347L45.6426 2.78679L50.4159 7.80392L50.4969 7.78282L48.9685 1.89521L50.642 1.44648L52.5053 9.56011L50.8537 10.0029L46.0542 5.07017L45.9302 5.10389L47.349 10.9418L45.7025 11.3829ZM59.1588 1.26763L57.8261 1.89351C57.6557 1.73349 57.4638 1.59807 57.2559 1.49117C57.0231 1.36946 56.7702 1.29115 56.5094 1.26006C56.1993 1.22522 55.8854 1.25216 55.5857 1.33934C55.1269 1.46165 54.7971 1.65651 54.5972 1.92306C54.3947 2.18708 54.377 2.46291 54.5432 2.75055C54.6874 3.00022 54.9059 3.17311 55.1994 3.27012C55.493 3.36712 55.897 3.4034 56.4124 3.37725L57.8902 3.29545C58.7472 3.24821 59.4591 3.34011 60.0251 3.56954C60.5781 3.78713 61.0394 4.18834 61.3317 4.70577C61.5898 5.15198 61.675 5.58888 61.5881 6.01653C61.5029 6.43913 61.2608 6.8179 60.8618 7.15276C60.4671 7.48679 59.9331 7.74322 59.2617 7.92372C58.3305 8.1734 57.4676 8.19871 56.673 8.00049C55.9 7.8129 55.2096 7.37772 54.7068 6.76134L56.1492 6.12789C56.4579 6.46782 56.8181 6.69051 57.2297 6.79763C57.6397 6.90054 58.0884 6.88704 58.5751 6.75629C59.1065 6.61374 59.4734 6.4012 59.6776 6.11862C59.8792 5.83268 59.8969 5.54587 59.7307 5.25824C59.5957 5.02459 59.3857 4.85504 59.0989 4.74876C58.8155 4.64164 58.4528 4.60031 58.0083 4.62561L56.4402 4.72683C55.5722 4.77575 54.8527 4.67705 54.2809 4.43075C53.7272 4.19562 53.2661 3.78522 52.9684 3.26255C52.7145 2.82224 52.6293 2.40046 52.7128 1.99642C52.7971 1.59239 53.0274 1.23392 53.4045 0.919294C53.7798 0.602138 54.28 0.360054 54.905 0.192198C55.8042 -0.0481992 56.6123 -0.0633838 57.3309 0.148334C58.0314 0.346618 58.6638 0.733838 59.1588 1.26763Z" fill="#73737E"/>
</svg>
